<svg xmlns="http://www.w3.org/2000/svg" viewBox="0 0 512 512">
  <!-- Background -->
  <rect width="512" height="512" rx="112" fill="#1d4ed8"/>

  <!-- Car body -->
  <rect x="96" y="260" width="320" height="110" rx="20" fill="white"/>

  <!-- Car roof/cabin -->
  <path d="M160 260 L185 185 Q190 170 205 170 L307 170 Q322 170 327 185 L352 260 Z" fill="white"/>

  <!-- Windscreen cutout (blue) -->
  <path d="M195 255 L215 195 Q218 185 228 185 L284 185 Q294 185 297 195 L317 255 Z" fill="#1d4ed8"/>

  <!-- Left wheel -->
  <circle cx="168" cy="375" r="44" fill="#1d4ed8"/>
  <circle cx="168" cy="375" r="26" fill="white"/>
  <circle cx="168" cy="375" r="10" fill="#1d4ed8"/>

  <!-- Right wheel -->
  <circle cx="344" cy="375" r="44" fill="#1d4ed8"/>
  <circle cx="344" cy="375" r="26" fill="white"/>
  <circle cx="344" cy="375" r="10" fill="#1d4ed8"/>

  <!-- People dots (riders) -->
  <circle cx="215" cy="220" r="10" fill="#93c5fd"/>
  <circle cx="256" cy="220" r="10" fill="#93c5fd"/>
  <circle cx="297" cy="220" r="10" fill="#93c5fd"/>
</svg>
